<svg xmlns="http://www.w3.org/2000/svg" width="400" height="400" viewBox="0 0 400 400">
  <defs>
    <radialGradient id="glow" cx="50%" cy="50%" r="70%">
      <stop offset="0%" stop-color="#5a4632"/>
      <stop offset="55%" stop-color="#3a2c1f"/>
      <stop offset="100%" stop-color="#2a1f16"/>
    </radialGradient>
    <linearGradient id="goldline" x1="0%" y1="0%" x2="100%" y2="0%">
      <stop offset="0%" stop-color="#b88b4a" stop-opacity="0"/>
      <stop offset="50%" stop-color="#e8c96a" stop-opacity="1"/>
      <stop offset="100%" stop-color="#b88b4a" stop-opacity="0"/>
    </linearGradient>
  </defs>

  <rect width="400" height="400" fill="url(#glow)"/>

  <rect x="18" y="18" width="364" height="364" fill="none" stroke="#b88b4a" stroke-width="1.5" stroke-opacity="0.5"/>
  <rect x="26" y="26" width="348" height="348" fill="none" stroke="#b88b4a" stroke-width="0.75" stroke-opacity="0.3"/>

  <g fill="#e8c96a" opacity="0.85">
    <circle cx="200" cy="60" r="1.6"/>
    <circle cx="120" cy="90" r="1.1"/>
    <circle cx="290" cy="100" r="1.3"/>
    <circle cx="70" cy="160" r="1"/>
    <circle cx="330" cy="180" r="1.2"/>
    <circle cx="150" cy="320" r="1.1"/>
    <circle cx="260" cy="330" r="1.4"/>
    <circle cx="90" cy="300" r="0.9"/>
    <circle cx="320" cy="290" r="1"/>
  </g>

  <g fill="#b88b4a" opacity="0.5">
    <circle cx="60" cy="70" r="0.7"/>
    <circle cx="340" cy="70" r="0.7"/>
    <circle cx="60" cy="330" r="0.7"/>
    <circle cx="340" cy="330" r="0.7"/>
    <circle cx="200" cy="350" r="0.8"/>
    <circle cx="40" cy="200" r="0.7"/>
    <circle cx="360" cy="220" r="0.7"/>
  </g>

  <text x="200" y="120" font-family="Georgia, serif" font-size="20" fill="#b88b4a" text-anchor="middle" letter-spacing="8" opacity="0.9">&#10022; &#10022; &#10022;</text>
  <line x1="100" y1="150" x2="300" y2="150" stroke="url(#goldline)" stroke-width="1.5"/>
  <line x1="100" y1="262" x2="300" y2="262" stroke="url(#goldline)" stroke-width="1.5"/>
  <text x="200" y="298" font-family="Georgia, serif" font-size="20" fill="#b88b4a" text-anchor="middle" letter-spacing="8" opacity="0.9">&#10022; &#10022; &#10022;</text>
</svg>
